<svg width="30" height="30" viewBox="0 0 30 30" fill="none" xmlns="http://www.w3.org/2000/svg">
<path fill-rule="evenodd" clip-rule="evenodd" d="M20.2772 5.61378C20.3736 5.37792 20.5564 5.18776 20.7883 5.08214C21.0202 4.97652 21.2837 4.96341 21.5249 5.04548C21.7661 5.12755 21.967 5.29861 22.0863 5.52373C22.2057 5.74886 22.2346 6.01105 22.1672 6.25678L22.1292 6.36678L19.5192 12.7868L20.1762 12.9618C21.2262 13.2428 22.1002 14.0958 22.2662 15.2598C22.4082 16.2598 22.5412 17.7798 22.3582 19.3458C22.1762 20.8978 21.6682 22.6238 20.4112 23.8918C19.9492 24.3578 19.2862 24.4318 18.8382 24.4398C18.3272 24.4478 17.7382 24.3698 17.1332 24.2498C15.9172 24.0078 14.4592 23.5598 13.0792 23.0838L12.6652 22.9388L11.8522 22.6448L11.0722 22.3538L10.3382 22.0708L9.36019 21.6828L8.53819 21.3478L7.72119 21.0028C7.56087 20.9351 7.42101 20.8267 7.31542 20.6883C7.20983 20.55 7.14218 20.3864 7.11915 20.2139C7.09612 20.0414 7.11852 19.8659 7.18412 19.7047C7.24972 19.5435 7.35625 19.4022 7.49319 19.2948C8.87019 18.2148 10.1632 16.9728 11.2542 15.8258L11.7832 15.2618L12.0332 14.9878L12.5052 14.4608L12.7252 14.2088L13.3192 13.5138L13.6562 13.1078C14.0091 12.6749 14.4724 12.3453 14.9971 12.154C15.5218 11.9626 16.0885 11.9166 16.6372 12.0208L16.8362 12.0668L17.5732 12.2638L20.2772 5.61378ZM13.4992 16.3488C12.4043 17.5605 11.2429 18.7102 10.0202 19.7928C10.5955 20.0255 11.1732 20.2521 11.7532 20.4728C12.2864 20.0928 12.766 19.6427 13.1792 19.1348C13.3544 18.9265 13.5174 18.7081 13.6672 18.4808L13.8092 18.2488C13.9408 18.0221 14.1562 17.8561 14.4089 17.7866C14.6617 17.7171 14.9316 17.7496 15.1606 17.8772C15.3896 18.0047 15.5594 18.2171 15.6334 18.4686C15.7074 18.7201 15.6797 18.9905 15.5562 19.2218C15.3222 19.6418 15.0292 20.0358 14.7242 20.4058C14.4771 20.7063 14.2126 20.9921 13.9322 21.2618C14.3942 21.4198 14.8562 21.5698 15.3042 21.7078C15.6772 21.4508 16.1142 20.9228 16.5102 20.3228C16.6695 20.0828 16.8202 19.8361 16.9622 19.5828L17.1662 19.1988C17.2838 18.961 17.4911 18.7797 17.7424 18.6948C17.9937 18.6098 18.2684 18.6282 18.5062 18.7458C18.744 18.8634 18.9253 19.0707 19.0102 19.322C19.0952 19.5733 19.0768 19.848 18.9592 20.0858C18.7302 20.5478 18.4632 20.9948 18.1792 21.4248C17.9821 21.7243 17.7705 22.014 17.5452 22.2928L17.9662 22.3748C18.3282 22.4418 18.7102 22.4888 19.0552 22.4178C19.8212 21.6028 20.2182 20.4198 20.3712 19.1128C20.4065 18.8088 20.4292 18.5075 20.4392 18.2088L13.4992 16.3488ZM16.3182 13.9988C16.1155 13.9482 15.9026 13.957 15.7047 14.024C15.5069 14.091 15.3324 14.2135 15.2022 14.3768L14.9592 14.6698L20.3572 16.1158L20.3102 15.7238L20.2862 15.5418C20.2492 15.2888 20.0702 15.0508 19.7752 14.9318L19.6592 14.8938L16.3182 13.9988ZM8.56419 10.7168L8.62819 10.8568C8.90088 11.4209 9.33035 11.8944 9.86519 12.2208L9.96519 12.2788C9.97558 12.2847 9.98421 12.2933 9.99022 12.3037C9.99622 12.314 9.99938 12.3258 9.99938 12.3378C9.99938 12.3498 9.99622 12.3615 9.99022 12.3719C9.98421 12.3822 9.97558 12.3908 9.96519 12.3968L9.86519 12.4548C9.33043 12.7818 8.9013 13.2561 8.62919 13.8208L8.56519 13.9598C8.55965 13.9724 8.55055 13.9831 8.539 13.9907C8.52746 13.9982 8.51398 14.0022 8.50019 14.0022C8.48641 14.0022 8.47292 13.9982 8.46138 13.9907C8.44984 13.9831 8.44074 13.9724 8.43519 13.9598L8.37119 13.8198C8.0985 13.2557 7.66903 12.7821 7.13419 12.4558L7.03419 12.3978C7.0238 12.3918 7.01517 12.3832 7.00917 12.3729C7.00316 12.3625 7 12.3508 7 12.3388C7 12.3268 7.00316 12.315 7.00917 12.3047C7.01517 12.2943 7.0238 12.2857 7.03419 12.2798L7.13419 12.2218C7.66858 11.8946 8.09736 11.4203 8.36919 10.8558L8.43319 10.7168C8.43874 10.7042 8.44784 10.6934 8.45938 10.6859C8.47092 10.6784 8.48441 10.6744 8.49819 10.6744C8.51198 10.6744 8.52546 10.6784 8.537 10.6859C8.54855 10.6934 8.55865 10.7042 8.56419 10.7168ZM11.3962 5.85778C11.4362 5.76778 11.5622 5.76778 11.6022 5.85778L11.7042 6.07978C12.1391 6.97741 12.8229 7.73103 13.6742 8.25078L13.8312 8.34378C13.8481 8.35312 13.8621 8.36682 13.8719 8.38343C13.8817 8.40005 13.8869 8.41899 13.8869 8.43828C13.8869 8.45758 13.8817 8.47652 13.8719 8.49314C13.8621 8.50975 13.8481 8.52344 13.8312 8.53278L13.6732 8.62478C12.8218 9.14481 12.1379 9.89879 11.7032 10.7968L11.6032 11.0188C11.5944 11.0389 11.5799 11.056 11.5615 11.068C11.5431 11.08 11.5217 11.0864 11.4997 11.0864C11.4777 11.0864 11.4562 11.08 11.4379 11.068C11.4195 11.056 11.405 11.0389 11.3962 11.0188L11.2942 10.7968C10.8595 9.89879 10.1756 9.14481 9.32419 8.62478L9.16619 8.53278C9.14931 8.52344 9.13524 8.50975 9.12544 8.49314C9.11564 8.47652 9.11048 8.45758 9.11048 8.43828C9.11048 8.41899 9.11564 8.40005 9.12544 8.38343C9.13524 8.36682 9.14931 8.35312 9.16619 8.34378L9.32519 8.25078C10.1765 7.73103 10.8603 6.97741 11.2952 6.07978L11.3952 5.85778H11.3962Z" fill="white"/>
</svg>
