<svg width="30" height="30" viewBox="0 0 30 30" fill="none" xmlns="http://www.w3.org/2000/svg">
<g clip-path="url(#clip0_618_673)">
<path d="M17.3333 7.78125V8.375C17.3333 9.03184 16.812 9.5625 16.1667 9.5625H13.8333C13.188 9.5625 12.6667 9.03184 12.6667 8.375V7.78125H10.3333C10.0125 7.78125 9.75 8.04844 9.75 8.375V22.625C9.75 22.9516 10.0125 23.2188 10.3333 23.2188H19.6667C19.9875 23.2188 20.25 22.9516 20.25 22.625V8.375C20.25 8.04844 19.9875 7.78125 19.6667 7.78125H17.3333ZM8 8.375C8 7.06504 9.04635 6 10.3333 6H19.6667C20.9536 6 22 7.06504 22 8.375V22.625C22 23.935 20.9536 25 19.6667 25H10.3333C9.04635 25 8 23.935 8 22.625V8.375ZM13.8333 17.875H16.1667C17.7781 17.875 19.0833 19.2035 19.0833 20.8438C19.0833 21.1703 18.8208 21.4375 18.5 21.4375H11.5C11.1792 21.4375 10.9167 21.1703 10.9167 20.8438C10.9167 19.2035 12.2219 17.875 13.8333 17.875ZM12.6667 14.3125C12.6667 13.6826 12.9125 13.0785 13.3501 12.6331C13.7877 12.1877 14.3812 11.9375 15 11.9375C15.6188 11.9375 16.2123 12.1877 16.6499 12.6331C17.0875 13.0785 17.3333 13.6826 17.3333 14.3125C17.3333 14.9424 17.0875 15.5465 16.6499 15.9919C16.2123 16.4373 15.6188 16.6875 15 16.6875C14.3812 16.6875 13.7877 16.4373 13.3501 15.9919C12.9125 15.5465 12.6667 14.9424 12.6667 14.3125Z" fill="white"/>
</g>
<defs>
<clipPath id="clip0_618_673">
<rect width="14" height="19" fill="white" transform="translate(8 6)"/>
</clipPath>
</defs>
</svg>
