<svg width="30" height="30" viewBox="0 0 30 30" fill="none" xmlns="http://www.w3.org/2000/svg">
<g clip-path="url(#clip0_627_525)">
<g clip-path="url(#clip1_627_525)">
<path d="M7.5 22.2461L11.5859 13.0547C12.1836 11.711 13.1602 10.5743 14.3984 9.78519L20.1367 6.11332C20.2539 6.0391 20.3906 6.00003 20.5273 6.00003C20.9258 5.99613 21.25 6.32035 21.25 6.72269V6.78519C21.25 6.88675 21.2305 6.98441 21.1953 7.07816L18.8594 12.9063C18.7852 13.0899 18.75 13.2852 18.75 13.4805C18.75 13.6953 18.7969 13.9102 18.8828 14.1094L22.5 22.2461H14.4102L14.8711 20.8633L16.4492 20.336C16.7031 20.25 16.875 20.0118 16.875 19.7422C16.875 19.4727 16.7031 19.2344 16.4492 19.1485L14.8711 18.6211L14.3437 17.043C14.2578 16.793 14.0195 16.6211 13.75 16.6211C13.4805 16.6211 13.2422 16.793 13.1563 17.0469L12.6289 18.625L11.0508 19.1524C10.7969 19.2383 10.625 19.4766 10.625 19.7461C10.625 20.0157 10.7969 20.2539 11.0508 20.3399L12.6289 20.8672L13.0898 22.2461H7.5ZM15.9219 11.5235C15.8789 11.3946 15.7617 11.3086 15.625 11.3086C15.4883 11.3086 15.3711 11.3946 15.3281 11.5235L15.0664 12.3125L14.2773 12.5743C14.1484 12.6172 14.0625 12.7344 14.0625 12.8711C14.0625 13.0078 14.1484 13.125 14.2773 13.168L15.0664 13.4297L15.3281 14.2188C15.3711 14.3477 15.4883 14.4336 15.625 14.4336C15.7617 14.4336 15.8789 14.3477 15.9219 14.2188L16.1836 13.4297L16.9727 13.168C17.1016 13.125 17.1875 13.0078 17.1875 12.8711C17.1875 12.7344 17.1016 12.6172 16.9727 12.5743L16.1836 12.3125L15.9219 11.5235ZM6.25 23.4961H23.75C24.4414 23.4961 25 24.0547 25 24.7461C25 25.4375 24.4414 25.9961 23.75 25.9961H6.25C5.55859 25.9961 5 25.4375 5 24.7461C5 24.0547 5.55859 23.4961 6.25 23.4961Z" fill="white"/>
</g>
<g clip-path="url(#clip2_627_525)">
<path d="M27 41.5032L31.9031 30.4735C32.6203 28.861 33.7922 27.4969 35.2781 26.55L42.1641 22.1438C42.3047 22.0547 42.4688 22.0079 42.6328 22.0079C43.1109 22.0032 43.5 22.3922 43.5 22.875V22.95C43.5 23.0719 43.4766 23.1891 43.4344 23.3016L40.6312 30.2954C40.5422 30.5157 40.5 30.75 40.5 30.9844C40.5 31.2422 40.5562 31.5 40.6594 31.7391L45 41.5032H35.2922L35.8453 39.8438L37.7391 39.211C38.0438 39.1079 38.25 38.8219 38.25 38.4985C38.25 38.175 38.0438 37.8891 37.7391 37.786L35.8453 37.1532L35.2125 35.2594C35.1094 34.9594 34.8234 34.7532 34.5 34.7532C34.1766 34.7532 33.8906 34.9594 33.7875 35.2641L33.1547 37.1579L31.2609 37.7907C30.9562 37.8938 30.75 38.1797 30.75 38.5032C30.75 38.8266 30.9562 39.1125 31.2609 39.2157L33.1547 39.8485L33.7078 41.5032H27ZM37.1063 28.636C37.0547 28.4813 36.9141 28.3782 36.75 28.3782C36.5859 28.3782 36.4453 28.4813 36.3937 28.636L36.0797 29.5829L35.1328 29.8969C34.9781 29.9485 34.875 30.0891 34.875 30.2532C34.875 30.4172 34.9781 30.5579 35.1328 30.6094L36.0797 30.9235L36.3937 31.8704C36.4453 32.025 36.5859 32.1282 36.75 32.1282C36.9141 32.1282 37.0547 32.025 37.1063 31.8704L37.4203 30.9235L38.3672 30.6094C38.5219 30.5579 38.625 30.4172 38.625 30.2532C38.625 30.0891 38.5219 29.9485 38.3672 29.8969L37.4203 29.5829L37.1063 28.636ZM25.5 43.0032H46.5C47.3297 43.0032 48 43.6735 48 44.5032C48 45.3329 47.3297 46.0032 46.5 46.0032H25.5C24.6703 46.0032 24 45.3329 24 44.5032C24 43.6735 24.6703 43.0032 25.5 43.0032Z" fill="black"/>
</g>
</g>
<defs>
<clipPath id="clip0_627_525">
<rect width="30" height="30" fill="white"/>
</clipPath>
<clipPath id="clip1_627_525">
<rect width="20" height="20" fill="white" transform="translate(5 6)"/>
</clipPath>
<clipPath id="clip2_627_525">
<rect width="24" height="24" fill="white" transform="translate(24 22)"/>
</clipPath>
</defs>
</svg>
